<svg width="21" height="20" viewBox="0 0 21 20" fill="none" xmlns="http://www.w3.org/2000/svg">
<path fill-rule="evenodd" clip-rule="evenodd" d="M5.32499 0.97998H1.84899L1.00199 13.74C0.950722 14.4922 1.05465 15.2468 1.3073 15.9572C1.55996 16.6675 1.95596 17.3183 2.47071 17.8691C2.98545 18.42 3.60795 18.8591 4.29955 19.1593C4.99115 19.4594 5.73707 19.6142 6.49099 19.614H14.609C15.3619 19.6141 16.1069 19.4597 16.7977 19.1602C17.4885 18.8607 18.1104 18.4225 18.625 17.8729C19.1396 17.3233 19.5359 16.6738 19.7892 15.9648C20.0426 15.2558 20.1477 14.5023 20.098 13.751L19.24 0.97998H5.32499ZM5.32499 2.07998H2.88299L2.10199 13.817C2.0613 14.4184 2.14461 15.0217 2.34675 15.5895C2.54888 16.1574 2.86554 16.6777 3.27706 17.1181C3.68859 17.5585 4.18622 17.9096 4.73908 18.1497C5.29193 18.3899 5.88823 18.5138 6.49099 18.514H14.609C15.2127 18.5154 15.8102 18.3925 16.3643 18.153C16.9185 17.9136 17.4174 17.5627 17.8302 17.1221C18.2429 16.6815 18.5605 16.1607 18.7633 15.5921C18.9661 15.0235 19.0497 14.4193 19.009 13.817L18.217 2.07998H15.775V2.77298C15.775 3.45914 15.6398 4.13858 15.3773 4.7725C15.1147 5.40643 14.7298 5.98243 14.2446 6.46761C13.7594 6.9528 13.1834 7.33767 12.5495 7.60025C11.9156 7.86283 11.2361 7.99798 10.55 7.99798C9.86383 7.99798 9.18439 7.86283 8.55047 7.60025C7.91654 7.33767 7.34054 6.9528 6.85536 6.46761C6.37017 5.98243 5.9853 5.40643 5.72272 4.7725C5.46014 4.13858 5.32499 3.45914 5.32499 2.77298V2.07998ZM14.675 2.07998H6.42499V2.77298C6.42499 3.867 6.85959 4.91621 7.63317 5.6898C8.40676 6.46338 9.45597 6.89798 10.55 6.89798C11.644 6.89798 12.6932 6.46338 13.4668 5.6898C14.2404 4.91621 14.675 3.867 14.675 2.77298V2.07998Z" fill="#121212"/>
</svg>
